<svg width="975" height="696" viewBox="0 0 975 696" fill="none" xmlns="http://www.w3.org/2000/svg">
<path d="M0 695.535V0.00314895H974.2V695.535H0Z" fill="white"/>
<path d="M76.9736 313.632C102.295 313.632 122.823 334.159 122.823 359.481V662.783H31.1234V359.481C31.1234 334.159 51.6509 313.632 76.9736 313.632Z" fill="#B1E2CC"/>
<path d="M76.9736 234.55C51.6509 234.55 31.1234 214.022 31.1234 188.7V32.1856H122.823V188.7C122.823 214.022 102.295 234.55 76.9736 234.55Z" fill="#F7999B"/>
<path d="M167.858 277.794C142.536 277.794 122.008 257.267 122.008 231.945V32.1856H213.708V231.945C213.708 257.267 193.18 277.794 167.858 277.794Z" fill="#549E8C"/>
<path d="M122.008 571.491C172.427 571.491 213.3 612.363 213.3 662.782V662.783H30.7157C30.7157 612.363 71.5887 571.491 122.008 571.491Z" fill="#EED3B3"/>
<path d="M122.006 32.1857V123.479C71.5896 123.479 30.7116 82.602 30.7116 32.1857H122.006Z" fill="#14384C"/>
<path d="M213.299 32.1857C213.299 57.3938 203.076 80.2131 186.562 96.7423C170.033 113.256 147.214 123.479 122.006 123.479V32.1857H213.299Z" fill="#EED3B3"/>
<path d="M122.008 86.7957H122.007C91.8477 86.7957 67.398 62.346 67.398 32.1857H176.618C176.618 62.346 152.168 86.7957 122.008 86.7957Z" fill="white"/>
<path d="M122.007 608.173H122.008C152.168 608.173 176.618 632.622 176.618 662.783H67.398C67.398 632.622 91.8477 608.173 122.007 608.173Z" fill="white"/>
<path d="M167.858 401.468C193.18 401.468 213.708 421.996 213.708 447.318V560.56H122.008V447.318C122.008 421.996 142.536 401.468 167.858 401.468Z" fill="#14384C"/>
<path d="M167.858 514.564C193.18 514.564 213.708 535.092 213.708 560.414V662.783H122.008V560.414C122.008 535.092 142.536 514.564 167.858 514.564Z" fill="#F7999B"/>
<path d="M897.408 380.538C872.08 380.538 851.556 360.01 851.556 334.688V31.3864H943.253V334.688C943.253 360.01 922.729 380.538 897.408 380.538Z" fill="#B1E2CC"/>
<path d="M897.408 461.332C922.729 461.332 943.253 481.86 943.253 507.182V663.697H851.556V507.182C851.556 481.86 872.08 461.332 897.408 461.332Z" fill="#F7999B"/>
<path d="M806.518 418.088C831.846 418.088 852.371 438.615 852.371 463.937V663.697H760.672V463.937C760.672 438.615 781.2 418.088 806.518 418.088Z" fill="#549E8C"/>
<path d="M852.371 122.679C801.955 122.679 761.08 81.806 761.08 31.3864H943.661C943.661 81.806 902.787 122.679 852.371 122.679Z" fill="#EED3B3"/>
<path d="M852.371 663.697V572.403C902.787 572.403 943.669 613.28 943.669 663.697H852.371Z" fill="#14384C"/>
<path d="M761.08 663.697C761.08 638.488 771.304 615.668 787.818 599.14C804.344 582.625 827.163 572.403 852.371 572.403V663.697H761.08Z" fill="#EED3B3"/>
<path d="M852.371 609.086C882.535 609.086 906.983 633.536 906.983 663.697H797.762C797.762 633.536 822.215 609.086 852.371 609.086Z" fill="white"/>
<path d="M852.371 85.9965C822.215 85.9965 797.762 61.5467 797.762 31.3864H906.983C906.983 61.5467 882.535 85.9965 852.371 85.9965Z" fill="white"/>
<path d="M806.518 292.701C781.2 292.701 760.672 272.173 760.672 246.852V133.609H852.371V246.852C852.371 272.173 831.846 292.701 806.518 292.701Z" fill="#14384C"/>
<path d="M806.518 179.605C781.2 179.605 760.672 159.077 760.672 133.755V31.3864H852.371V133.755C852.371 159.077 831.846 179.605 806.518 179.605Z" fill="#F7999B"/>
</svg>
